<!DOCTYPE svg PUBLIC "-//W3C//DTD SVG 1.1//EN" "http://www.w3.org/Graphics/SVG/1.1/DTD/svg11.dtd">
<!-- Uploaded to: SVG Repo, www.svgrepo.com, Transformed by: SVG Repo Mixer Tools -->
<svg fill="#ffffff" width="800px" height="800px" viewBox="0 0 1024 1024" xmlns="http://www.w3.org/2000/svg">
<g id="SVGRepo_bgCarrier" stroke-width="0"/>
<g id="SVGRepo_tracerCarrier" stroke-linecap="round" stroke-linejoin="round"/>
<g id="SVGRepo_iconCarrier">
<path d="M648.533 320c0-140.8-140.8-256-311.467-256S25.599 179.2 25.599 320c0 98.133 64 183.467 166.4 226.133-4.267 34.133-25.6 64-55.467 85.333-8.533 4.267-12.8 21.333-8.533 29.867l8.533 8.533c25.6 12.8 51.2 21.333 81.067 21.333 72.533 0 136.533-46.933 153.6-115.2 153.6-17.067 277.333-128 277.333-256zM349.867 529.067c-4.267 0-8.533 0-12.8 4.267s-8.533 8.533-8.533 17.067c-8.533 55.467-55.467 98.133-115.2 98.133-8.533 0-21.333 0-29.867-4.267C213.334 614.4 230.4 576 230.4 533.334c0-8.533-4.267-17.067-12.8-21.333l-4.267-4.267C123.733 469.334 64 396.801 64 320.001c0-115.2 119.467-213.333 268.8-213.333s268.8 93.867 268.8 213.333c4.267 110.933-106.667 200.533-251.733 209.067z"/>
<path d="M998.4 593.067c0-123.733-115.2-234.667-268.8-251.733-12.8 0-21.333 8.533-25.6 17.067 0 12.8 8.533 21.333 17.067 25.6 132.267 12.8 230.4 102.4 230.4 209.067 0 81.067-55.467 153.6-149.333 187.733h-4.267c-8.533 4.267-12.8 12.8-12.8 21.333 0 38.4 12.8 76.8 42.667 106.667-12.8 4.267-21.333 4.267-34.133 4.267-55.467 0-102.4-38.4-110.933-93.867 0-8.533-8.533-12.8-12.8-17.067-4.267 0-4.267-4.267-8.533-4.267-119.467-4.267-217.6-72.533-243.2-162.133-4.267-12.8-17.067-17.067-25.6-12.8-12.8 4.267-17.067 17.067-12.8 25.6 29.867 102.4 140.8 179.2 268.8 192 17.067 68.267 76.8 115.2 149.333 115.2 25.6 0 51.2-8.533 72.533-17.067h8.533c8.533 0 12.8-4.267 17.067-8.533 4.267-8.533 4.267-21.333-8.533-29.867-29.867-17.067-51.2-46.933-55.467-85.333 98.133-42.667 166.4-132.267 166.4-221.867z"/>
</g>
</svg>